<svg width="70" height="70" viewBox="0 0 70 70" fill="none" xmlns="http://www.w3.org/2000/svg">
<path fill-rule="evenodd" clip-rule="evenodd" d="M34.9658 0.833252C16.1058 0.833252 0.833252 16.1399 0.833252 34.9999C0.833252 53.8599 16.1058 69.1666 34.9658 69.1666C53.8599 69.1666 69.1666 53.8599 69.1666 34.9999C69.1666 16.1399 53.8599 0.833252 34.9658 0.833252ZM38.4166 38.4166V17.9166H31.5833V38.4166H38.4166ZM38.4166 52.0833V45.2499H31.5833V52.0833H38.4166ZM7.66659 34.9999C7.66659 50.1016 19.8983 62.3332 34.9999 62.3332C50.1016 62.3332 62.3332 50.1016 62.3332 34.9999C62.3332 19.8983 50.1016 7.66659 34.9999 7.66659C19.8983 7.66659 7.66659 19.8983 7.66659 34.9999Z" fill="#FF0000" fill-opacity="0.54"/>
</svg>
