<svg width="92" height="84" viewBox="0 0 92 84" fill="none" xmlns="http://www.w3.org/2000/svg">
<path fill-rule="evenodd" clip-rule="evenodd" d="M32 20H20V32H12V20H0V12H12V0H20V12H32V20ZM71.32 20H84C88.4 20 92 23.6 92 28V76C92 80.4 88.4 84 84 84H20C15.6 84 12 80.4 12 76V40H20V76H84V28H67.8L60.48 20H40V12H64L71.32 20ZM52 72C40.96 72 32 63.04 32 52C32 40.96 40.96 32 52 32C63.04 32 72 40.96 72 52C72 63.04 63.04 72 52 72ZM52 40C58.6 40 64 45.4 64 52C64 58.6 58.6 64 52 64C45.4 64 40 58.6 40 52C40 45.4 45.4 40 52 40Z" fill="#16A085" fill-opacity="0.75"/>
</svg>
